<svg width="7" height="8" viewBox="0 0 7 8" fill="none" xmlns="http://www.w3.org/2000/svg">
<path d="M3.81084 0.500031C3.76995 0.499452 3.72934 0.507008 3.69139 0.522258C3.65344 0.537509 3.6189 0.56015 3.58978 0.588865C3.56065 0.617581 3.53752 0.651799 3.52174 0.689531C3.50595 0.727263 3.49782 0.767755 3.49782 0.808656C3.49782 0.849556 3.50595 0.890049 3.52174 0.927781C3.53752 0.965512 3.56065 0.99973 3.58978 1.02845C3.6189 1.05716 3.65344 1.0798 3.69139 1.09505C3.72934 1.1103 3.76995 1.11786 3.81084 1.11728H5.9463L0.0948859 6.9687C0.0652668 6.99714 0.0416196 7.0312 0.0253294 7.06889C0.0090392 7.10658 0.000433417 7.14715 1.59537e-05 7.18821C-0.00040151 7.22927 0.00737779 7.27 0.0228983 7.30801C0.0384187 7.34603 0.0613684 7.38056 0.0904032 7.4096C0.119438 7.43863 0.153974 7.46158 0.191989 7.4771C0.230005 7.49262 0.270735 7.5004 0.311794 7.49998C0.352853 7.49957 0.393417 7.49096 0.431108 7.47467C0.4688 7.45838 0.502863 7.43473 0.531301 7.40511L6.38272 1.5537V3.68916C6.38214 3.73005 6.3897 3.77066 6.40495 3.80861C6.4202 3.84656 6.44284 3.8811 6.47155 3.91023C6.50027 3.93935 6.53449 3.96248 6.57222 3.97826C6.60995 3.99405 6.65044 4.00218 6.69134 4.00218C6.73224 4.00218 6.77274 3.99405 6.81047 3.97826C6.8482 3.96248 6.88242 3.93935 6.91114 3.91023C6.93985 3.8811 6.96249 3.84656 6.97774 3.80861C6.99299 3.77066 7.00055 3.73005 6.99997 3.68916V0.808656C6.99996 0.726806 6.96744 0.648311 6.90957 0.590434C6.85169 0.532557 6.77319 0.500039 6.69134 0.500031H3.81084Z" fill="#B00805"/>
</svg>
