<svg width="7" height="8" viewBox="0 0 7 8" fill="none" xmlns="http://www.w3.org/2000/svg">
<path d="M3.18916 7.49997C3.23005 7.50055 3.27066 7.49299 3.30861 7.47774C3.34656 7.46249 3.3811 7.43985 3.41022 7.41113C3.43935 7.38242 3.46248 7.3482 3.47826 7.31047C3.49405 7.27274 3.50218 7.23224 3.50218 7.19134C3.50218 7.15044 3.49405 7.10995 3.47826 7.07222C3.46248 7.03449 3.43935 7.00027 3.41022 6.97155C3.3811 6.94284 3.34656 6.9202 3.30861 6.90495C3.27066 6.8897 3.23005 6.88214 3.18916 6.88272L1.0537 6.88272L6.90511 1.0313C6.93473 1.00286 6.95838 0.968799 6.97467 0.931108C6.99096 0.893416 6.99957 0.852853 6.99998 0.811793C7.0004 0.770734 6.99262 0.730005 6.9771 0.691989C6.96158 0.653974 6.93863 0.619438 6.9096 0.590404C6.88056 0.561368 6.84603 0.538418 6.80801 0.522898C6.77 0.507378 6.72927 0.499598 6.68821 0.500016C6.64715 0.500433 6.60658 0.509039 6.56889 0.52533C6.5312 0.541619 6.49714 0.565267 6.4687 0.594886L0.617281 6.4463L0.617281 4.31084C0.61786 4.26995 0.610304 4.22934 0.595053 4.19139C0.579803 4.15344 0.557163 4.1189 0.528446 4.08977C0.499731 4.06065 0.465513 4.03752 0.427781 4.02174C0.39005 4.00595 0.349556 3.99782 0.308656 3.99782C0.267755 3.99782 0.227262 4.00595 0.189531 4.02174C0.1518 4.03752 0.117582 4.06065 0.0888651 4.08977C0.060149 4.1189 0.0375088 4.15344 0.0222586 4.19139C0.00700836 4.22934 -0.000547604 4.26995 3.07964e-05 4.31084L3.05446e-05 7.19134C3.86436e-05 7.27319 0.0325575 7.35169 0.0904341 7.40957C0.148311 7.46744 0.226806 7.49996 0.308656 7.49997L3.18916 7.49997Z" fill="#287F08"/>
</svg>
